<?xml version="1.0" standalone="no"?>
<!DOCTYPE svg PUBLIC "-//W3C//DTD SVG 20010904//EN"
 "http://www.w3.org/TR/2001/REC-SVG-20010904/DTD/svg10.dtd">
<svg version="1.0" xmlns="http://www.w3.org/2000/svg"
 width="700.000000pt" height="700.000000pt" viewBox="0 0 700.000000 700.000000"
 preserveAspectRatio="xMidYMid meet">
<metadata>
Created by potrace 1.11, written by Peter Selinger 2001-2013
</metadata>
<g transform="translate(0.000000,700.000000) scale(0.100000,-0.100000)"
fill="#000000" stroke="none">
<path d="M4596 6708 c-432 -41 -900 -273 -1133 -561 -32 -40 -60 -74 -63 -77
-18 -17 -88 -135 -133 -222 -45 -88 -77 -163 -118 -278 -11 -32 -67 -237 -73
-270 -35 -182 -49 -272 -61 -400 -2 -25 -7 -72 -10 -105 -4 -33 -8 -179 -10
-325 -2 -146 -4 -266 -4 -266 -1 -1 -34 5 -73 12 -40 8 -94 16 -119 19 -25 3
-55 7 -66 9 -32 7 -221 19 -288 19 -70 0 -281 -13 -310 -18 -11 -3 -38 -7 -60
-10 -167 -22 -533 -131 -715 -212 -324 -144 -538 -281 -707 -454 -400 -408
-603 -971 -549 -1519 21 -214 102 -480 217 -715 123 -250 218 -384 399 -564
41 -40 91 -85 110 -100 19 -14 41 -32 49 -39 29 -28 169 -118 241 -155 191
-99 344 -140 640 -171 228 -24 854 -25 1130 -2 25 3 88 7 140 11 52 3 111 8
130 10 19 1 71 6 115 10 44 3 96 8 115 10 19 2 60 6 90 9 30 3 73 8 95 10 22
3 69 8 105 12 80 8 85 9 140 18 25 4 59 10 75 12 17 2 41 6 55 9 14 3 41 7 60
10 48 7 226 41 402 75 81 16 157 31 170 34 13 2 106 20 208 40 102 19 203 38
225 41 22 4 56 10 75 15 19 5 53 11 75 15 23 3 52 8 65 11 30 6 114 21 155 29
70 12 259 34 337 40 119 9 404 19 575 19 115 1 183 5 184 11 0 6 2 82 4 170 4
194 14 460 20 535 3 30 7 92 10 138 3 45 8 106 10 135 3 28 8 77 11 107 6 71
14 138 20 170 2 14 6 48 9 75 14 122 60 352 120 605 2 8 10 47 19 85 8 39 27
117 41 175 29 119 90 412 100 480 3 25 13 88 21 140 25 168 37 329 38 515 0
126 -11 373 -19 413 -3 17 -8 58 -20 159 -31 257 -130 607 -236 832 -49 104
-126 243 -161 291 -80 109 -187 237 -250 296 -166 159 -454 345 -713 461 -308
139 -625 198 -909 171z"/>
</g>
</svg>
