<?xml version="1.0" encoding="UTF-8"?>
<svg width="500px" height="412px" viewBox="0 0 500 412" version="1.1" xmlns="http://www.w3.org/2000/svg" xmlns:xlink="http://www.w3.org/1999/xlink">
    <!-- Generator: Sketch 47.1 (45422) - http://www.bohemiancoding.com/sketch -->
    <title>logo</title>
    <desc>Created with Sketch.</desc>
    <defs></defs>
    <g id="Page-1" stroke="none" stroke-width="1" fill="none" fill-rule="evenodd">
        <g id="logo" fill="#1A3316">
            <path d="M322.208114,136.807239 C322.491565,135.800747 322.795527,134.790398 323.12,133.77619 C325.686544,125.753928 329.558814,118.847648 334.736928,113.057143 C339.915042,107.266638 345.700935,104.371429 352.09478,104.371429 C362.811225,104.371429 368.169366,111.971353 368.169366,127.171429 C368.169366,132.961934 367.223812,139.053936 365.332675,145.447619 C366.683487,147.980965 368.619622,149.247619 371.141139,149.247619 C375.823955,149.247619 380.236542,144.000052 384.379033,133.504762 C384.649196,132.780949 384.919354,132.419048 385.189517,132.419048 C385.729842,132.419048 386,133.3238 386,135.133333 C386,140.923838 384.266484,145.719029 380.799399,149.519048 C377.332314,153.319067 374.090413,155.219048 371.073598,155.219048 C368.056784,155.219048 365.467766,154.073027 363.306466,151.780952 C360.064517,160.346075 356.214759,167.101563 351.757079,172.047619 C347.299398,176.993676 341.558532,179.466667 334.534308,179.466667 C330.0316,179.466667 326.361948,177.627003 323.525242,173.947619 C320.688536,170.268236 319.270205,164.658768 319.270205,157.119048 C319.270205,154.76484 319.395314,152.387122 319.645535,149.985885 C316.846159,153.595307 313.659235,155.4 310.084727,155.4 C305.401911,155.4 302.114983,152.022256 300.223846,145.266667 C292.389134,161.06992 286.895913,170.419033 283.744018,173.314286 C279.331364,177.295258 275.00883,179.285714 270.776284,179.285714 C268.614985,179.285714 266.836442,177.868268 265.440602,175.033333 C264.044763,172.198399 263.346854,168.33812 263.346854,163.452381 C263.346854,160.78111 263.683352,157.379614 264.356354,153.247859 C263.031325,155.887552 261.344032,158.896973 259.294437,162.27619 C256.953029,166.136527 254.656682,169.212687 252.405329,171.504762 C246.731917,177.053996 241.036077,179.828571 235.317638,179.828571 C229.599199,179.828571 224.983993,177.868274 221.471881,173.947619 C217.959769,170.026965 216.203739,164.025437 216.203739,155.942857 C216.203739,154.74433 216.235778,153.554389 216.299855,152.373032 C214.648865,155.77672 213.175972,158.655542 211.881161,161.009524 C209.359645,165.593674 206.320363,169.785695 202.763224,173.585714 C199.206085,177.385733 195.986697,179.285714 193.104964,179.285714 C187.971877,179.285714 185.405372,174.219098 185.405372,164.085714 C185.405372,157.209489 186.395953,149.428615 188.377144,140.742857 C190.358336,132.057099 193.285052,123.673056 197.157381,115.590476 C194.005485,118.968271 190.853637,120.657143 187.701742,120.657143 C186.711146,120.657143 185.675539,120.355559 184.594889,119.752381 C178.201044,136.641354 174.756524,145.085714 174.261226,145.085714 C173.765928,145.085714 173.518283,144.090486 173.518283,142.1 C173.518283,140.109514 174.081113,137.334938 175.20679,133.77619 C176.332467,130.217443 177.54818,126.80954 178.853965,123.552381 C180.15975,120.295222 180.857659,118.485716 180.947714,118.12381 C177.705764,115.95237 176.084814,112.453992 176.084814,107.628571 C176.084814,105.215861 176.647644,103.044454 177.773321,101.114286 C178.898997,99.1841173 180.452408,98.2190476 182.4336,98.2190476 C184.414791,98.2190476 186.035742,99.0634836 187.2965,100.752381 C187.116392,101.476194 187.026339,102.561898 187.026339,104.009524 C187.026339,107.266683 187.904354,109.830149 189.66041,111.7 C191.416466,113.569851 193.55522,114.504762 196.076736,114.504762 C196.797169,114.504762 197.337486,114.444445 197.697703,114.32381 C200.849598,108.292033 204.046473,105.27619 207.288422,105.27619 L214.177531,105.457143 L215.528336,105.457143 C214.177524,106.784134 212.263902,110.704729 209.787413,117.219048 C207.310923,123.733366 205.464841,128.64919 204.24911,131.966667 C203.033379,135.284144 201.682587,139.747591 200.196693,145.357143 C198.7108,150.966695 197.967864,155.520617 197.967864,159.019048 C197.967864,162.517478 198.868392,164.266667 200.669475,164.266667 C201.840179,164.146031 203.483643,163.030169 205.599915,160.919048 C207.716188,158.807926 209.472218,156.576202 210.868057,154.22381 C212.263897,151.871417 213.794794,148.855574 215.460796,145.17619 C216.767678,142.289928 217.936009,139.700627 218.965811,137.408241 C220.651004,131.979859 223.107323,126.758078 226.334781,121.742857 C233.088843,111.247567 240.968463,106 249.973879,106 C254.026316,106 257.268216,107.417446 259.699679,110.252381 C262.131141,113.087316 263.346854,116.495218 263.346854,120.47619 C263.346854,127.23178 260.960454,132.660297 256.187584,136.761905 C251.414714,140.863513 245.786414,142.914286 239.302514,142.914286 C235.52024,142.914286 232.728603,142.2508 230.92752,140.92381 C229.216491,147.076221 228.360989,152.504738 228.360989,157.209524 C228.360989,167.342908 231.557864,172.409524 237.951709,172.409524 C241.733983,172.409524 245.628767,170.449226 249.636177,166.528571 C253.643587,162.607917 257.065594,158.204786 259.9023,153.319048 C262.337995,149.12398 265.055825,143.350322 268.055849,135.997939 C272.151747,120.139907 276.79575,110.74385 281.987971,107.809524 C284.77965,106.241262 288.561867,105.457143 293.334738,105.457143 C293.694954,105.457143 293.87506,105.69841 293.87506,106.180952 C293.87506,106.663494 293.604901,107.266663 293.064576,107.990476 C289.642519,111.850813 285.92784,120.084064 281.92043,132.690476 C277.91302,145.296888 275.909346,154.223783 275.909346,159.471429 C275.909346,164.719074 277.395217,167.342857 280.367004,167.342857 C282.88852,167.342857 285.815236,163.995272 289.14724,157.3 C292.479244,150.604728 295.270881,143.215913 297.522235,135.133333 C297.071964,132.358716 296.846832,128.83018 296.846832,124.547619 C296.846832,120.265058 297.634794,115.982561 299.210742,111.7 C300.786689,107.417439 302.97047,105.27619 305.762149,105.27619 C308.553828,105.27619 309.949646,108.050766 309.949646,113.6 C309.949646,120.114318 308.463775,126.749173 305.491988,133.504762 C304.6815,135.43493 304.141183,136.761901 303.871021,137.485714 C303.961075,141.225416 304.658984,144.120625 305.96477,146.171429 C307.270555,148.222232 308.959045,149.247619 311.030291,149.247619 C314.27224,149.247619 317.289009,146.53336 320.080688,141.104762 C320.846342,139.56627 321.55548,138.13377 322.208114,136.807239 Z M196.723737,64.5619048 L177.677379,63.4761905 C176.776837,63.4761905 173.805095,70.6840549 168.762062,85.1 C163.719029,99.5159451 159.351468,113.479298 155.659248,126.990476 C151.967027,140.501655 150.120945,150.242827 150.120945,156.214286 C150.120945,162.185744 151.539277,165.171429 154.375983,165.171429 C157.212688,165.171429 160.792287,161.250833 165.114887,153.409524 C165.565158,152.685711 166.015422,152.32381 166.465692,152.32381 C166.915963,152.32381 167.141095,152.866661 167.141095,153.952381 C167.141095,155.038101 166.533239,157.028557 165.317508,159.92381 C164.101777,162.819062 162.503339,165.92538 160.522148,169.242857 C158.540956,172.560334 155.974452,175.51586 152.822556,178.109524 C149.670661,180.703188 146.42876,182 143.096756,182 C138.143777,182 135.667325,177.415919 135.667325,168.247619 C135.667325,156.90788 139.944834,137.606486 148.499978,110.342857 C154.623661,91.1618089 160.251961,75.2381586 165.385048,62.5714286 L163.629001,62.5714286 L149.715703,62.2095238 C141.971046,62.2095238 135.217086,63.5364947 129.45362,66.1904762 C126.301724,67.6381025 123.802759,69.7793509 121.956649,72.6142857 C120.110539,75.4492205 119.187497,78.857123 119.187497,82.8380952 L120.268142,90.4380952 C120.268142,91.6444505 119.817878,92.247619 118.917336,92.247619 C117.746632,92.247619 116.801078,90.7095392 116.080644,87.6333333 C115.360211,84.5571275 115,81.8730273 115,79.5809524 C115,73.9110828 115.990581,69.0857342 117.971772,65.1047619 C119.952964,61.1237896 122.654548,58.1079468 126.076606,56.0571429 C132.560505,52.1968061 139.719703,50.2666667 147.554414,50.2666667 C155.389126,50.2666667 164.259327,50.8999937 174.165284,52.1666667 C184.071241,53.4333397 193.076522,54.0666667 201.181396,54.0666667 C209.28627,54.0666667 214.554359,52.3777947 216.985821,49 C217.255983,49.8444487 217.391063,50.6888847 217.391063,51.5333333 C217.391063,55.5143056 215.499954,58.6809406 211.717679,61.0333333 C207.935405,63.385726 202.937474,64.5619048 196.723737,64.5619048 Z M256.187584,116.67619 C256.187584,113.17776 254.926845,111.428571 252.405329,111.428571 C248.893217,111.428571 244.97592,114.323781 240.65332,120.114286 C236.330721,125.904791 234.169453,130.609506 234.169453,134.228571 C234.169453,136.641282 235.880457,137.847619 239.302514,137.847619 C242.724572,137.847619 246.304171,135.615895 250.041419,131.152381 C253.778666,126.688867 255.827368,121.863518 256.187584,116.67619 Z M361.82058,122.285714 C361.460364,115.892032 359.299096,112.695238 355.336713,112.695238 C349.122977,112.695238 343.044412,120.777697 337.100838,136.942857 C333.858889,145.869886 332.237938,153.952345 332.237938,161.190476 C332.237938,168.428608 334.579311,172.22857 339.262127,172.590476 C343.134456,172.590476 346.714055,169.846059 350.001031,164.357143 C353.288008,158.868227 356.057132,152.806382 358.308486,146.171429 C355.246644,142.672998 353.715747,138.269868 353.715747,132.961905 C353.715747,129.704746 354.36863,127.111121 355.674415,125.180952 C356.9802,123.250784 358.758743,122.285714 361.010097,122.285714 L361.82058,122.285714 Z" id="Trevo"></path>
            <path d="M34.625896,253.305856 L31.76788,251.293274 C24.5945118,248.477444 19.7370551,246.225236 17.1955099,244.536651 C10.4324584,240.043328 6.93183807,234.722391 5.60439957,230.845058 C4.99401555,229.062179 4.17203423,226.927089 4.02426305,224.251692 C3.87670232,221.580105 4.40205873,218.36903 5.60439957,215.44133 C7.29259547,211.330574 8.97374722,206.943158 15.1258409,202.683317 C21.2779346,198.423477 28.8065684,194.63706 36.4346187,194.093832 C49.1144128,193.190845 63.4948923,198.95841 73.2514554,204.802908 C88.8774793,214.163403 100.460328,219.666563 108,221.31239 C106.669832,224.571998 105.273529,229.416416 103.811089,235.845645 C102.348649,242.274874 100.183736,251.728658 97.3163493,264.206998 C94.9772066,273.706797 92.9984213,280.191326 91.3799933,283.660584 C86.8517793,293.367253 81.1722841,300.934324 73.2514554,303.596394 C61.3932021,307.581773 54.2624905,305.652486 51.2176737,304.571132 C27.3203179,296.084082 21.7897253,278.995657 34.625896,253.305856 Z M43.118011,250.11341 C31.0346827,263.591771 28.7834758,276.304749 36.3643905,288.252344 C40.9884414,295.539893 44.6223004,299.34012 54.1410984,300.971258 C59.2409116,301.84516 60.3962358,301.715515 66.5639321,300.971258 C72.2706551,300.282626 75.4222847,298.416136 79.004667,295.539893 C92.4744297,284.725217 93.243682,259.905394 95.4518571,250.357636 C97.5421814,241.319444 100.32515,232.600999 103.800761,224.202304 C95.6318703,220.923394 89.4442072,218.313349 85.237772,216.372167 C78.9281192,213.460393 72.1943302,209.310886 64.5176725,206.073976 C60.046228,204.188563 46.5190399,197.748812 34.2692465,198.753501 C25.4883703,199.47368 17.1971482,205.786957 14.1398908,212.16111 C11.4128659,217.846753 8.54396791,230.294625 14.1398908,237.121515 C16.3023801,239.7597 21.6040768,243.622572 29.69408,246.357853 C31.6516767,247.019729 36.1263204,248.271581 43.118011,250.11341 Z" id="Combined-Shape"></path>
            <path d="M211.148435,319.435586 C216.767474,334.659902 217.034816,346.28374 211.950462,354.307098 C209.786046,357.722653 203.989465,363.713684 196.319202,365.92205 C189.830911,367.790111 182.936924,367.079923 175.56296,364.944625 C163.378844,361.41644 155.935878,350.176352 151.723323,338.704526 C147.40726,326.950821 148.194965,316.507952 146.636239,306.641573 C145.708612,300.769904 143.829865,293.415523 141,284.578427 C148.25721,282.300101 153.579253,280.282596 156.966128,278.525912 C167.642531,272.988338 175.81484,268.057789 180.923588,265.736 C196.674776,258.577507 208.014426,255.073581 214.730685,254.179147 C221.712008,253.249413 228.850154,256.056292 233.889763,259.872134 C239.808802,264.353854 243.101063,270.133634 243.814504,271.497338 C247.959689,279.420632 248.162761,289.528418 243.814504,298.356017 C240.461542,305.163024 233.674706,310.14993 230.131122,312.630522 C224.705093,316.428869 218.37753,318.697224 211.148435,319.435586 Z M145.690205,287.520271 C148.042897,293.846733 149.598719,298.665962 150.357672,301.977957 C153.743032,316.751323 154.22099,330.666131 157.111512,339.791313 C158.369809,343.76367 165.733901,357.848273 176.211334,361.484678 C186.112308,364.92101 199.054968,358.109132 203.502305,355.337154 C207.340554,352.944814 212.725547,345.449667 211.735486,335.567198 C211.346133,331.680795 208.601739,325.000586 203.502305,315.52657 C206.080569,316.103911 208.496297,316.103911 210.749489,315.52657 C212.003109,315.205352 220.802187,314.110329 227.967578,309.639875 C234.076609,305.828479 238.592418,298.97594 240.63878,294.439483 C242.97136,289.268526 243.044173,284.518962 240.63878,275.779553 C239.590523,271.970965 237.155433,267.205246 233.745068,264.122223 C229.329808,260.130762 223.576138,258.279955 220.155393,257.924119 C210.575165,256.927556 204.291052,260.562766 197.370656,263.35122 C192.75706,265.210189 175.530243,273.26654 145.690205,287.520271 Z" id="Combined-Shape"></path>
            <path d="M361.57616,320.617522 C363.579348,334.739138 361.684765,344.791778 355.89241,350.775441 C353.426597,353.322694 347.399067,357.428097 340.467341,357.938238 C334.60378,358.369767 328.865615,356.508752 322.979095,353.33419 C313.252705,348.088811 308.969691,337.065609 307.478551,326.428588 C305.950772,315.5302 308.527754,306.685238 309.00232,297.911062 C309.284744,292.689385 309.028317,286.019171 308.233039,277.90042 C314.825967,277.255187 319.724158,276.483612 322.927613,275.585697 C333.025821,272.755211 340.881845,269.993209 345.654043,268.921082 C360.367585,265.615524 370.65904,264.655554 376.538884,265.103314 C382.650781,265.568746 388.213976,269.278562 391.806795,273.476315 C396.026574,278.406592 397.773586,283.97786 398.131865,285.280883 C400.213509,292.851611 398.541002,301.587794 393.22835,308.397079 C389.131737,313.647753 382.44467,316.709426 378.975671,318.20197 C373.663848,320.487394 367.864011,321.292577 361.57616,320.617522 Z M311.688026,281.282617 C312.535517,287.154061 312.979923,291.583828 313.021245,294.571918 C313.205564,307.900484 311.07199,319.963053 311.866301,328.340746 C312.212079,331.987707 315.908644,345.444771 324.162632,350.473892 C331.962492,355.226315 344.222274,351.709926 348.5137,350.130435 C352.217392,348.767265 358.169201,343.292714 359.130725,334.607782 C359.508856,331.192326 358.392551,324.945415 355.781809,315.867051 C357.870897,316.831348 359.927045,317.269286 361.950255,317.180864 C363.075919,317.131668 370.765176,317.784376 377.680163,315.23582 C383.575706,313.062985 388.670389,307.983931 391.240361,304.450559 C394.169785,300.422986 395.098874,296.348426 394.647053,288.3907 C394.450151,284.922766 393.247587,280.379654 390.90771,277.107967 C387.878369,272.87225 383.319024,270.236274 380.472419,269.309887 C372.50014,266.715423 366.487741,268.704881 360.088361,269.850221 C355.822108,270.613781 339.688663,274.42458 311.688026,281.282617 Z" id="Combined-Shape"></path>
            <path d="M465.330201,241.414036 C465.711822,252.25853 463.476417,259.716601 458.623987,263.788248 C456.558301,265.521553 451.678714,268.153281 446.404346,267.99301 C441.942748,267.857436 437.759403,265.99685 433.569232,263.130537 C426.645747,258.394483 424.294727,249.715048 424.020674,241.547898 C423.739887,233.180069 426.393803,226.689699 427.454707,220.087195 C428.086072,216.157921 428.426592,211.089988 428.476268,204.883398 C433.505658,204.914734 437.265622,204.716891 439.756162,204.289869 C447.607058,202.943771 453.7596,201.472782 457.448505,201.037564 C468.822063,199.69571 476.669078,199.780367 481.07256,200.582631 C485.64983,201.416557 489.553026,204.662444 491.929498,208.122285 C494.720673,212.185881 495.593558,216.53966 495.75972,217.553968 C496.725146,223.447223 494.762828,229.926561 490.206465,234.66081 C486.69303,238.311413 481.399065,240.101311 478.660422,240.957394 C474.466938,242.26825 470.023531,242.420464 465.330201,241.414036 Z M430.813982,207.715199 C430.983683,212.225242 430.964495,215.612519 430.756419,217.87703 C429.828281,227.978025 427.251489,236.938285 427.180348,243.340754 C427.149379,246.127865 428.862731,256.602919 434.691855,261.059271 C440.200267,265.270439 449.738095,263.575645 453.104642,262.718584 C456.010121,261.978903 460.942173,258.305097 462.363589,251.808508 C462.922578,249.253644 462.579985,244.438278 461.335811,237.362409 C462.835875,238.256798 464.353218,238.750265 465.88784,238.84281 C466.741666,238.8943 472.494861,239.994268 477.919819,238.610637 C482.545001,237.430989 486.798246,233.988922 489.021537,231.517575 C491.555792,228.700569 492.583538,225.690348 492.879632,219.632685 C493.008669,216.992787 492.464516,213.459981 490.959872,210.799697 C489.011871,207.355537 485.780602,205.001403 483.70557,204.076 C477.894179,201.48429 473.195454,202.515958 468.272148,202.878334 C464.989944,203.119918 452.503889,204.732207 430.813982,207.715199 Z" id="Combined-Shape"></path>
            <path d="M149.47072,226.283316 C148.262181,226.283316 147.141552,225.990034 146.1088,225.403463 C145.076048,224.816891 144.180644,224.012072 143.42256,222.988982 C142.664476,221.965892 142.071202,220.785946 141.64272,219.449108 C141.214238,218.11227 141,216.679966 141,215.152151 C141,213.651619 141.214238,212.239776 141.64272,210.916579 C142.071202,209.593383 142.658983,208.433898 143.40608,207.43809 C144.153177,206.442283 145.037595,205.657925 146.05936,205.084995 C147.081125,204.512064 148.185274,204.225603 149.37184,204.225603 C150.580379,204.225603 151.701008,204.518885 152.73376,205.105456 C153.766512,205.692028 154.656423,206.483206 155.40352,207.479014 C156.150617,208.474821 156.732905,209.634306 157.1504,210.957503 C157.567895,212.280699 157.77664,213.678901 157.77664,215.152151 L157.77664,215.663694 C157.77664,215.868312 157.765653,215.997901 157.74368,216.052466 L142.71392,216.052466 C142.77984,217.280174 143.010558,218.419197 143.40608,219.46957 C143.801602,220.519942 144.30149,221.427069 144.90576,222.190976 C145.51003,222.954883 146.207676,223.555087 146.99872,223.991605 C147.789764,224.428124 148.635729,224.64638 149.53664,224.64638 C150.129923,224.64638 150.71221,224.544072 151.28352,224.339454 C151.85483,224.134836 152.387678,223.855196 152.88208,223.500525 C153.376482,223.145853 153.815945,222.716162 154.20048,222.211438 C154.585015,221.706713 154.887146,221.154253 155.10688,220.55404 L156.55712,221.045121 C156.315412,221.809028 155.958349,222.511539 155.48592,223.152676 C155.013491,223.793812 154.464163,224.346273 153.83792,224.810073 C153.211677,225.273874 152.525017,225.635361 151.77792,225.894544 C151.030823,226.153726 150.261764,226.283316 149.47072,226.283316 Z M156.19456,214.41553 C156.12864,213.160539 155.903415,212.014696 155.51888,210.977964 C155.134345,209.941233 154.63995,209.047748 154.03568,208.297482 C153.43141,207.547216 152.733764,206.960653 151.94272,206.537775 C151.151676,206.114898 150.305711,205.903463 149.4048,205.903463 C148.503889,205.903463 147.657924,206.114898 146.86688,206.537775 C146.075836,206.960653 145.37819,207.547216 144.77392,208.297482 C144.16965,209.047748 143.686242,209.948054 143.32368,210.998426 C142.961118,212.048799 142.74688,213.187822 142.68096,214.41553 L156.19456,214.41553 Z M166.2144,225.874082 L159.06208,204.593914 L160.776,204.593914 L167.10432,223.827912 L173.4656,204.593914 L175.08064,204.593914 L167.92832,225.874082 L166.2144,225.874082 Z M185.03456,226.283316 C183.826021,226.283316 182.705392,225.990034 181.67264,225.403463 C180.639888,224.816891 179.744484,224.012072 178.9864,222.988982 C178.228316,221.965892 177.635042,220.785946 177.20656,219.449108 C176.778078,218.11227 176.56384,216.679966 176.56384,215.152151 C176.56384,213.651619 176.778078,212.239776 177.20656,210.916579 C177.635042,209.593383 178.222823,208.433898 178.96992,207.43809 C179.717017,206.442283 180.601435,205.657925 181.6232,205.084995 C182.644965,204.512064 183.749114,204.225603 184.93568,204.225603 C186.144219,204.225603 187.264848,204.518885 188.2976,205.105456 C189.330352,205.692028 190.220263,206.483206 190.96736,207.479014 C191.714457,208.474821 192.296745,209.634306 192.71424,210.957503 C193.131735,212.280699 193.34048,213.678901 193.34048,215.152151 L193.34048,215.663694 C193.34048,215.868312 193.329493,215.997901 193.30752,216.052466 L178.27776,216.052466 C178.34368,217.280174 178.574398,218.419197 178.96992,219.46957 C179.365442,220.519942 179.86533,221.427069 180.4696,222.190976 C181.07387,222.954883 181.771516,223.555087 182.56256,223.991605 C183.353604,224.428124 184.199569,224.64638 185.10048,224.64638 C185.693763,224.64638 186.27605,224.544072 186.84736,224.339454 C187.41867,224.134836 187.951518,223.855196 188.44592,223.500525 C188.940322,223.145853 189.379785,222.716162 189.76432,222.211438 C190.148855,221.706713 190.450986,221.154253 190.67072,220.55404 L192.12096,221.045121 C191.879252,221.809028 191.522189,222.511539 191.04976,223.152676 C190.577331,223.793812 190.028003,224.346273 189.40176,224.810073 C188.775517,225.273874 188.088857,225.635361 187.34176,225.894544 C186.594663,226.153726 185.825604,226.283316 185.03456,226.283316 Z M191.7584,214.41553 C191.69248,213.160539 191.467255,212.014696 191.08272,210.977964 C190.698185,209.941233 190.20379,209.047748 189.59952,208.297482 C188.99525,207.547216 188.297604,206.960653 187.50656,206.537775 C186.715516,206.114898 185.869551,205.903463 184.96864,205.903463 C184.067729,205.903463 183.221764,206.114898 182.43072,206.537775 C181.639676,206.960653 180.94203,207.547216 180.33776,208.297482 C179.73349,209.047748 179.250082,209.948054 178.88752,210.998426 C178.524958,212.048799 178.31072,213.187822 178.2448,214.41553 L191.7584,214.41553 Z M210.97408,225.874082 L209.32608,225.874082 L209.32608,214.006296 C209.32608,211.250773 209.012963,209.245547 208.38672,207.990556 C207.760477,206.735566 206.766193,206.10808 205.40384,206.10808 C204.678716,206.10808 203.959097,206.271772 203.24496,206.599161 C202.530823,206.926549 201.866136,207.390343 201.25088,207.990556 C200.635624,208.590769 200.097282,209.29328 199.63584,210.098111 C199.174398,210.902942 198.833814,211.769145 198.61408,212.696747 L198.61408,225.874082 L196.96608,225.874082 L196.96608,204.593914 L198.5152,204.593914 L198.5152,209.668416 C198.866775,208.849943 199.300744,208.106509 199.81712,207.43809 C200.333496,206.769671 200.915783,206.19675 201.564,205.719307 C202.212217,205.241865 202.898876,204.873558 203.624,204.614376 C204.349124,204.355193 205.096209,204.225603 205.86528,204.225603 C207.733023,204.225603 209.051409,205.037243 209.82048,206.660546 C210.589551,208.283849 210.97408,210.609639 210.97408,213.637985 L210.97408,225.874082 Z M223.43296,224.850997 C223.345066,224.905562 223.196748,225.007869 222.988,225.157922 C222.779252,225.307976 222.515575,225.451206 222.19696,225.587618 C221.878345,225.72403 221.521282,225.846799 221.12576,225.955929 C220.730238,226.065058 220.301762,226.119622 219.84032,226.119622 C219.378878,226.119622 218.944909,226.037776 218.5384,225.874082 C218.131891,225.710387 217.774828,225.464849 217.4672,225.137461 C217.159572,224.810072 216.917868,224.414483 216.74208,223.950682 C216.566292,223.486881 216.4784,222.941241 216.4784,222.313746 L216.4784,206.271773 L214.07232,206.271773 L214.07232,204.593914 L216.4784,204.593914 L216.4784,197.309549 L218.1264,197.309549 L218.1264,204.593914 L222.11456,204.593914 L222.11456,206.271773 L218.1264,206.271773 L218.1264,221.822665 C218.1264,222.613855 218.346131,223.207238 218.7856,223.602833 C219.225069,223.998428 219.719464,224.196222 220.2688,224.196222 C220.949977,224.196222 221.537758,224.052992 222.03216,223.766527 C222.526562,223.480062 222.828693,223.295908 222.93856,223.214061 L223.43296,224.850997 Z M231.77184,226.283316 C230.453433,226.283316 229.189979,226.010496 227.98144,225.464848 C226.772901,224.9192 225.718191,224.10074 224.81728,223.009444 L225.64128,221.618048 C226.564165,222.65478 227.519995,223.418675 228.5088,223.909759 C229.497605,224.400842 230.585274,224.64638 231.77184,224.64638 C233.266034,224.64638 234.469062,224.257611 235.38096,223.480063 C236.292858,222.702514 236.7488,221.618055 236.7488,220.226653 C236.7488,219.571875 236.633441,219.019415 236.40272,218.569255 C236.171999,218.119095 235.825922,217.737147 235.36448,217.4234 C234.903038,217.109652 234.331737,216.830012 233.65056,216.58447 C232.969383,216.338928 232.178351,216.07975 231.27744,215.806925 C230.310608,215.534101 229.470137,215.261282 228.756,214.988458 C228.041863,214.715633 227.454082,214.38825 226.99264,214.006296 C226.531198,213.624342 226.185121,213.160548 225.9544,212.6149 C225.723679,212.069252 225.60832,211.373561 225.60832,210.527807 C225.60832,209.463793 225.773118,208.536205 226.10272,207.745016 C226.432322,206.953826 226.888264,206.299058 227.47056,205.780693 C228.052856,205.262327 228.723036,204.873558 229.48112,204.614376 C230.239204,204.355193 231.046716,204.225603 231.90368,204.225603 C233.24406,204.225603 234.430608,204.505244 235.46336,205.064533 C236.496112,205.623822 237.29813,206.339975 237.86944,207.213012 L236.94656,208.317943 C236.37525,207.499471 235.633658,206.885626 234.72176,206.47639 C233.809862,206.067154 232.837552,205.862539 231.8048,205.862539 C231.16757,205.862539 230.568803,205.944385 230.00848,206.10808 C229.448157,206.271774 228.959255,206.530953 228.54176,206.885624 C228.124265,207.240296 227.794668,207.697269 227.55296,208.256558 C227.311252,208.815847 227.1904,209.477436 227.1904,210.241343 C227.1904,210.868838 227.272799,211.373555 227.4376,211.755509 C227.602401,212.137463 227.866078,212.464846 228.22864,212.737671 C228.591202,213.010495 229.05813,213.249212 229.62944,213.45383 C230.20075,213.658448 230.881916,213.883524 231.67296,214.129066 C232.749659,214.456455 233.705489,214.770198 234.54048,215.070304 C235.375471,215.370411 236.073117,215.738718 236.63344,216.175236 C237.193763,216.611755 237.622239,217.130112 237.91888,217.730325 C238.215521,218.330538 238.36384,219.094434 238.36384,220.022036 C238.36384,221.931804 237.765073,223.452775 236.56752,224.584995 C235.369967,225.717214 233.771423,226.283316 231.77184,226.283316 Z M257.71136,226.283316 C256.524794,226.283316 255.426138,225.976393 254.41536,225.362539 C253.404582,224.748685 252.53115,223.930225 251.79504,222.907135 C251.05893,221.884045 250.487629,220.71092 250.08112,219.387723 C249.674611,218.064526 249.47136,216.693606 249.47136,215.274921 C249.47136,213.801672 249.669118,212.396649 250.06464,211.059811 C250.460162,209.722973 251.00949,208.549848 251.71264,207.540399 C252.41579,206.53095 253.245275,205.726131 254.20112,205.125918 C255.156965,204.525705 256.206181,204.225603 257.3488,204.225603 C258.095897,204.225603 258.799037,204.362013 259.45824,204.634837 C260.117443,204.907661 260.73269,205.269148 261.304,205.719307 C261.87531,206.169467 262.391678,206.694645 262.85312,207.294858 C263.314562,207.895071 263.710078,208.536198 264.03968,209.218258 L264.03968,196 L265.68768,196 L265.68768,223.009444 C265.68768,223.691504 265.918398,224.032529 266.37984,224.032529 L266.37984,225.874082 C266.247999,225.901364 266.138134,225.921826 266.05024,225.935467 C265.962346,225.949108 265.874454,225.955929 265.78656,225.955929 C265.347091,225.955929 264.973548,225.744493 264.66592,225.321616 C264.358292,224.898739 264.20448,224.455406 264.20448,223.991605 L264.20448,221.618048 C263.50133,223.036733 262.561979,224.168936 261.3864,225.01469 C260.210821,225.860445 258.98582,226.283316 257.71136,226.283316 Z M258.008,224.441763 C258.601283,224.441763 259.238503,224.291712 259.91968,223.991605 C260.600857,223.691499 261.232584,223.275449 261.81488,222.743442 C262.397176,222.211435 262.897065,221.604411 263.31456,220.92235 C263.732055,220.24029 263.97376,219.503677 264.03968,218.712487 L264.03968,211.714586 C263.797972,210.950678 263.451896,210.220885 263.00144,209.525184 C262.550984,208.829482 262.04011,208.229278 261.4688,207.724554 C260.89749,207.21983 260.282243,206.81742 259.62304,206.517314 C258.963837,206.217207 258.326616,206.067156 257.71136,206.067156 C256.722555,206.067156 255.821657,206.333156 255.00864,206.865163 C254.195623,207.39717 253.50347,208.09286 252.93216,208.952256 C252.36085,209.811652 251.921388,210.793803 251.61376,211.898741 C251.306132,213.003678 251.15232,214.142701 251.15232,215.315845 C251.15232,216.543553 251.328105,217.703038 251.67968,218.794334 C252.031255,219.88563 252.520157,220.854141 253.1464,221.699895 C253.772643,222.54565 254.497756,223.214058 255.32176,223.705142 C256.145764,224.196225 257.041168,224.441763 258.008,224.441763 Z M278.21248,226.283316 C277.003941,226.283316 275.883312,225.990034 274.85056,225.403463 C273.817808,224.816891 272.922404,224.012072 272.16432,222.988982 C271.406236,221.965892 270.812962,220.785946 270.38448,219.449108 C269.955998,218.11227 269.74176,216.679966 269.74176,215.152151 C269.74176,213.651619 269.955998,212.239776 270.38448,210.916579 C270.812962,209.593383 271.400743,208.433898 272.14784,207.43809 C272.894937,206.442283 273.779355,205.657925 274.80112,205.084995 C275.822885,204.512064 276.927034,204.225603 278.1136,204.225603 C279.322139,204.225603 280.442768,204.518885 281.47552,205.105456 C282.508272,205.692028 283.398183,206.483206 284.14528,207.479014 C284.892377,208.474821 285.474665,209.634306 285.89216,210.957503 C286.309655,212.280699 286.5184,213.678901 286.5184,215.152151 L286.5184,215.663694 C286.5184,215.868312 286.507413,215.997901 286.48544,216.052466 L271.45568,216.052466 C271.5216,217.280174 271.752318,218.419197 272.14784,219.46957 C272.543362,220.519942 273.04325,221.427069 273.64752,222.190976 C274.25179,222.954883 274.949436,223.555087 275.74048,223.991605 C276.531524,224.428124 277.377489,224.64638 278.2784,224.64638 C278.871683,224.64638 279.45397,224.544072 280.02528,224.339454 C280.59659,224.134836 281.129438,223.855196 281.62384,223.500525 C282.118242,223.145853 282.557705,222.716162 282.94224,222.211438 C283.326775,221.706713 283.628906,221.154253 283.84864,220.55404 L285.29888,221.045121 C285.057172,221.809028 284.700109,222.511539 284.22768,223.152676 C283.755251,223.793812 283.205923,224.346273 282.57968,224.810073 C281.953437,225.273874 281.266777,225.635361 280.51968,225.894544 C279.772583,226.153726 279.003524,226.283316 278.21248,226.283316 Z M284.93632,214.41553 C284.8704,213.160539 284.645175,212.014696 284.26064,210.977964 C283.876105,209.941233 283.38171,209.047748 282.77744,208.297482 C282.17317,207.547216 281.475524,206.960653 280.68448,206.537775 C279.893436,206.114898 279.047471,205.903463 278.14656,205.903463 C277.245649,205.903463 276.399684,206.114898 275.60864,206.537775 C274.817596,206.960653 274.11995,207.547216 273.51568,208.297482 C272.91141,209.047748 272.428002,209.948054 272.06544,210.998426 C271.702878,212.048799 271.48864,213.187822 271.42272,214.41553 L284.93632,214.41553 Z M295.5824,226.283316 C294.263993,226.283316 293.000539,226.010496 291.792,225.464848 C290.583461,224.9192 289.528751,224.10074 288.62784,223.009444 L289.45184,221.618048 C290.374725,222.65478 291.330555,223.418675 292.31936,223.909759 C293.308165,224.400842 294.395834,224.64638 295.5824,224.64638 C297.076594,224.64638 298.279622,224.257611 299.19152,223.480063 C300.103418,222.702514 300.55936,221.618055 300.55936,220.226653 C300.55936,219.571875 300.444001,219.019415 300.21328,218.569255 C299.982559,218.119095 299.636482,217.737147 299.17504,217.4234 C298.713598,217.109652 298.142297,216.830012 297.46112,216.58447 C296.779943,216.338928 295.988911,216.07975 295.088,215.806925 C294.121168,215.534101 293.280697,215.261282 292.56656,214.988458 C291.852423,214.715633 291.264642,214.38825 290.8032,214.006296 C290.341758,213.624342 289.995681,213.160548 289.76496,212.6149 C289.534239,212.069252 289.41888,211.373561 289.41888,210.527807 C289.41888,209.463793 289.583678,208.536205 289.91328,207.745016 C290.242882,206.953826 290.698824,206.299058 291.28112,205.780693 C291.863416,205.262327 292.533596,204.873558 293.29168,204.614376 C294.049764,204.355193 294.857276,204.225603 295.71424,204.225603 C297.05462,204.225603 298.241168,204.505244 299.27392,205.064533 C300.306672,205.623822 301.10869,206.339975 301.68,207.213012 L300.75712,208.317943 C300.18581,207.499471 299.444218,206.885626 298.53232,206.47639 C297.620422,206.067154 296.648112,205.862539 295.61536,205.862539 C294.97813,205.862539 294.379363,205.944385 293.81904,206.10808 C293.258717,206.271774 292.769815,206.530953 292.35232,206.885624 C291.934825,207.240296 291.605228,207.697269 291.36352,208.256558 C291.121812,208.815847 291.00096,209.477436 291.00096,210.241343 C291.00096,210.868838 291.083359,211.373555 291.24816,211.755509 C291.412961,212.137463 291.676638,212.464846 292.0392,212.737671 C292.401762,213.010495 292.86869,213.249212 293.44,213.45383 C294.01131,213.658448 294.692476,213.883524 295.48352,214.129066 C296.560219,214.456455 297.516049,214.770198 298.35104,215.070304 C299.186031,215.370411 299.883677,215.738718 300.444,216.175236 C301.004323,216.611755 301.432799,217.130112 301.72944,217.730325 C302.026081,218.330538 302.1744,219.094434 302.1744,220.022036 C302.1744,221.931804 301.575633,223.452775 300.37808,224.584995 C299.180527,225.717214 297.581983,226.283316 295.5824,226.283316 Z M305.99776,225.874082 L305.99776,204.593914 L307.64576,204.593914 L307.64576,225.874082 L305.99776,225.874082 Z M305.99776,199.764953 L305.99776,196 L307.64576,196 L307.64576,199.764953 L305.99776,199.764953 Z M319.74208,226.201469 C318.555514,226.201469 317.467845,225.894547 316.47904,225.280693 C315.490235,224.666838 314.638777,223.848379 313.92464,222.825289 C313.210503,221.802198 312.650189,220.635893 312.24368,219.326338 C311.837171,218.016783 311.63392,216.666324 311.63392,215.274921 C311.63392,213.828954 311.826185,212.437572 312.21072,211.100735 C312.595255,209.763897 313.13909,208.583951 313.84224,207.56086 C314.54539,206.53777 315.385862,205.726131 316.36368,205.125918 C317.341498,204.525705 318.423674,204.225603 319.61024,204.225603 C321.104434,204.225603 322.406341,204.709859 323.516,205.678384 C324.625659,206.646909 325.565009,207.826856 326.33408,209.218258 L326.33408,204.593914 L327.85024,204.593914 L327.85024,226.283316 C327.85024,227.729283 327.630509,228.997896 327.19104,230.089192 C326.751571,231.180488 326.16379,232.087614 325.42768,232.810598 C324.69157,233.533582 323.834618,234.079222 322.8568,234.447534 C321.878982,234.815847 320.851739,235 319.77504,235 C318.786235,235 317.896324,234.884052 317.10528,234.652151 C316.314236,234.420251 315.61659,234.092867 315.01232,233.66999 C314.40805,233.247112 313.869709,232.728754 313.39728,232.1149 C312.924851,231.501046 312.512855,230.825817 312.16128,230.089192 L313.28192,229.147954 C313.963097,230.593921 314.885968,231.651098 316.05056,232.319517 C317.215152,232.987936 318.456633,233.322141 319.77504,233.322141 C320.653978,233.322141 321.483463,233.17209 322.26352,232.871983 C323.043577,232.571877 323.724744,232.128544 324.30704,231.541973 C324.889336,230.955401 325.350772,230.225608 325.69136,229.352571 C326.031948,228.479534 326.20224,227.456459 326.20224,226.283316 L326.20224,221.618048 C325.49909,223.009451 324.565232,224.121192 323.40064,224.953305 C322.236048,225.785419 321.01654,226.201469 319.74208,226.201469 Z M320.1376,224.441763 C320.862724,224.441763 321.571357,224.27125 322.26352,223.93022 C322.955683,223.58919 323.581917,223.145858 324.14224,222.60021 C324.702563,222.054562 325.163998,221.440717 325.52656,220.758657 C325.889122,220.076597 326.114346,219.394547 326.20224,218.712487 L326.20224,211.714586 C325.938559,210.896113 325.586989,210.139038 325.14752,209.443337 C324.708051,208.747636 324.208163,208.154252 323.64784,207.663169 C323.087517,207.172086 322.483257,206.783317 321.83504,206.496852 C321.186823,206.210387 320.533123,206.067156 319.87392,206.067156 C318.841168,206.067156 317.918297,206.339976 317.10528,206.885624 C316.292263,207.431272 315.605603,208.140604 315.04528,209.013641 C314.484957,209.886678 314.056481,210.87565 313.75984,211.980588 C313.463199,213.085525 313.31488,214.197266 313.31488,215.315845 C313.31488,216.543553 313.490665,217.703038 313.84224,218.794334 C314.193815,219.88563 314.677224,220.854141 315.29248,221.699895 C315.907736,222.54565 316.632849,223.214058 317.46784,223.705142 C318.302831,224.196225 319.192742,224.441763 320.1376,224.441763 Z M347,225.874082 L345.352,225.874082 L345.352,214.006296 C345.352,211.250773 345.038883,209.245547 344.41264,207.990556 C343.786397,206.735566 342.792113,206.10808 341.42976,206.10808 C340.704636,206.10808 339.985017,206.271772 339.27088,206.599161 C338.556743,206.926549 337.892056,207.390343 337.2768,207.990556 C336.661544,208.590769 336.123202,209.29328 335.66176,210.098111 C335.200318,210.902942 334.859734,211.769145 334.64,212.696747 L334.64,225.874082 L332.992,225.874082 L332.992,204.593914 L334.54112,204.593914 L334.54112,209.668416 C334.892695,208.849943 335.326664,208.106509 335.84304,207.43809 C336.359416,206.769671 336.941703,206.19675 337.58992,205.719307 C338.238137,205.241865 338.924796,204.873558 339.64992,204.614376 C340.375044,204.355193 341.122129,204.225603 341.8912,204.225603 C343.758943,204.225603 345.077329,205.037243 345.8464,206.660546 C346.615471,208.283849 347,210.609639 347,213.637985 L347,225.874082 Z" id="events-design-copy-2"></path>
        </g>
    </g>
</svg>